<svg xmlns="http://www.w3.org/2000/svg" width="1050" height="510" viewBox="0 0 1050 510" role="img" aria-labelledby="t d"><title id="t">Config ve native window uyumluluğu</title><desc id="d">Window bit, native visual ve format eşleşmesinin surface sonucuna etkisi.</desc><defs><marker id="a" markerWidth="10" markerHeight="10" refX="8" refY="3" orient="auto"><path d="M0 0v6l9-3z" fill="#475569"/></marker><style>text{font-family:Arial,sans-serif;fill:#172033}.h{font-size:20px;font-weight:700}.s{font-size:16px}.n{fill:#fff;stroke:#64748b;stroke-width:2;rx:6}.q{fill:#fff7ed;stroke:#c2410c}.g{fill:#ecfdf5;stroke:#15803d}.b{fill:#fff1f2;stroke:#be123c}.l{fill:none;stroke:#475569;stroke-width:2.5;marker-end:url(#a)}</style></defs><rect width="1050" height="510" fill="#f8fafc"/><rect class="n" x="80" y="60" width="260" height="92"/><text class="h" x="210" y="96" text-anchor="middle">EGLConfig</text><text class="s" x="210" y="126" text-anchor="middle">surface type + visual format</text><rect class="n" x="80" y="235" width="260" height="92"/><text class="h" x="210" y="271" text-anchor="middle">Native window</text><text class="s" x="210" y="301" text-anchor="middle">platform + pixel format</text><path class="l" d="M340 106h130v90"/><path class="l" d="M340 281h130v-45"/><rect class="n q" x="470" y="166" width="310" height="100"/><text class="h" x="625" y="202" text-anchor="middle">Uyumluluk kontrolü</text><text class="s" x="625" y="232" text-anchor="middle">EGL_WINDOW_BIT + format match</text><path class="l" d="M780 196h120v-60"/><path class="l" d="M780 236h120v85"/><text class="s" x="845" y="183" text-anchor="middle">uyumlu</text><text class="s" x="845" y="284" text-anchor="middle">uyumsuz</text><rect class="n g" x="835" y="55" width="180" height="82"/><text class="h" x="925" y="91" text-anchor="middle">EGLSurface</text><text class="s" x="925" y="119" text-anchor="middle">created</text><rect class="n b" x="835" y="321" width="180" height="105"/><text class="h" x="925" y="357" text-anchor="middle">EGL_NO_SURFACE</text><text class="s" x="925" y="387" text-anchor="middle">EGL_BAD_MATCH</text></svg>
